<svg width="40" height="40" viewBox="0 0 40 40" fill="none" xmlns="http://www.w3.org/2000/svg">
<path fill-rule="evenodd" style="fill:#6AABD2" clip-rule="evenodd" d="M20 4C11.1634 4 4 11.1634 4 20C4 28.8366 11.1634 36 20 36C28.8366 36 36 28.8366 36 20C36 11.1634 28.8366 4 20 4ZM0 20C0 8.9543 8.9543 0 20 0C31.0457 0 40 8.9543 40 20C40 31.0457 31.0457 40 20 40C8.9543 40 0 31.0457 0 20ZM29.3287 13.5052C30.1543 14.239 30.2287 15.5032 29.4948 16.3287L18.8282 28.3287C18.4486 28.7557 17.9046 29 17.3333 29C16.7621 29 16.2181 28.7557 15.8385 28.3287L10.5052 22.3287C9.77135 21.5032 9.84571 20.239 10.6713 19.5052C11.4968 18.7713 12.761 18.8457 13.4948 19.6713L17.3333 23.9896L26.5052 13.6713C27.239 12.8457 28.5032 12.7713 29.3287 13.5052Z"/>
<style>
path: 
</style>
</svg>
